<?xml version="1.0" standalone="no"?>
<!DOCTYPE svg PUBLIC "-//W3C//DTD SVG 20010904//EN"
 "http://www.w3.org/TR/2001/REC-SVG-20010904/DTD/svg10.dtd">
<svg version="1.0" xmlns="http://www.w3.org/2000/svg"
 width="477.000000pt" height="477.000000pt" viewBox="0 0 477.000000 477.000000"
 preserveAspectRatio="xMidYMid meet">

<g transform="translate(0.000000,477.000000) scale(0.100000,-0.100000)"
fill="#000000" stroke="none">
<path d="M2173 4760 c-1124 -110 -2001 -956 -2155 -2080 -16 -123 -16 -479 1
-595 98 -673 417 -1218 946 -1615 305 -229 681 -385 1075 -446 142 -22 518
-25 655 -6 800 114 1476 598 1825 1307 114 232 187 460 226 715 25 163 26 519
0 685 -78 516 -312 982 -675 1344 -369 368 -825 596 -1351 675 -128 20 -422
28 -547 16z m504 -45 c498 -66 930 -266 1301 -604 320 -291 576 -718 683
-1139 83 -332 94 -713 29 -1052 -65 -341 -241 -715 -470 -1005 -81 -103 -262
-284 -365 -365 -290 -230 -657 -401 -995 -464 -396 -73 -850 -50 -1195 63
-751 244 -1327 844 -1544 1606 -111 390 -109 880 5 1272 221 764 799 1357
1554 1597 122 39 316 81 440 95 129 15 429 12 557 -4z"/>
<path d="M2290 4430 l0 -170 30 0 c29 0 29 0 32 68 3 61 5 67 25 70 19 3 28
-8 55 -63 33 -66 58 -85 94 -71 13 5 11 15 -19 68 l-35 63 36 31 c31 27 37 37
37 74 0 35 -6 47 -33 71 -31 28 -37 29 -127 29 l-95 0 0 -170z m168 104 c50
-34 18 -77 -55 -72 -45 3 -48 5 -50 33 -1 16 3 35 9 42 14 18 69 16 96 -3z"/>
<path d="M1886 4550 c-37 -10 -73 -23 -78 -28 -9 -9 52 -305 65 -318 7 -7 177
24 196 35 8 5 10 18 5 34 -7 32 -24 34 -90 11 -51 -17 -61 -13 -70 33 -6 30
-5 31 37 38 69 12 79 20 66 54 l-10 28 -56 -13 c-30 -7 -58 -11 -62 -8 -4 2
-9 15 -11 29 -6 31 7 40 74 49 54 8 69 22 57 54 -10 27 -29 27 -123 2z"/>
<path d="M2833 4540 c-71 -43 -69 -106 5 -170 62 -55 68 -67 46 -91 -23 -25
-41 -24 -79 6 -32 24 -33 24 -50 4 -18 -18 -17 -20 4 -43 33 -35 102 -50 145
-32 89 37 86 129 -6 192 -56 39 -63 84 -14 84 13 0 35 -9 50 -21 28 -22 53
-20 62 6 8 21 -13 45 -61 66 -51 23 -63 23 -102 -1z"/>
<path d="M1492 4424 c-22 -15 -23 -19 -16 -115 5 -73 4 -99 -5 -99 -6 0 -45
25 -86 56 -75 56 -98 62 -124 30 -8 -9 19 -34 116 -107 130 -96 172 -124 179
-117 8 9 -22 362 -31 365 -6 2 -21 -4 -33 -13z"/>
<path d="M3267 4396 c-9 -13 -41 -81 -72 -151 -54 -121 -56 -129 -39 -142 10
-7 23 -13 28 -13 10 0 96 172 135 267 12 31 12 35 -5 48 -26 19 -29 19 -47 -9z"/>
<path d="M3571 4232 c-6 -11 -46 -70 -91 -131 -44 -62 -80 -116 -80 -119 0 -4
28 -27 63 -51 64 -46 124 -61 181 -47 57 14 126 103 126 162 0 52 -38 111
-103 159 -67 50 -82 54 -96 27z m80 -93 c65 -46 56 -149 -15 -183 -44 -21 -79
-15 -121 18 l-29 23 59 82 c32 44 62 81 68 81 5 0 22 -9 38 -21z"/>
<path d="M1017 4132 c-15 -16 -9 -26 80 -140 53 -68 102 -126 110 -129 8 -3
24 3 34 14 20 20 20 20 -82 146 -57 70 -108 127 -114 127 -7 0 -19 -8 -28 -18z"/>
<path d="M2200 4110 c-202 -28 -402 -89 -577 -176 -114 -57 -140 -75 -129 -93
4 -5 60 18 129 53 491 250 1051 254 1538 11 103 -51 129 -58 129 -34 0 16
-215 117 -337 158 -182 61 -309 82 -513 86 -96 2 -204 0 -240 -5z"/>
<path d="M756 3898 c-16 -22 -15 -24 6 -41 54 -44 108 -97 108 -106 0 -5 -39
-12 -87 -16 -49 -3 -112 -9 -142 -13 l-54 -7 126 -112 c69 -62 130 -113 136
-113 6 0 17 12 23 26 11 24 8 29 -57 88 -82 75 -86 71 97 81 90 5 125 10 121
18 -6 15 -229 206 -247 213 -8 3 -21 -5 -30 -18z"/>
<path d="M3931 3751 c-91 -21 -166 -42 -168 -48 -7 -20 27 -43 56 -37 24 5 32
-1 69 -50 46 -60 48 -67 30 -96 -10 -15 -9 -23 6 -39 11 -12 22 -21 26 -21 7
0 170 311 170 324 0 9 -13 7 -189 -33z m59 -95 c-25 -42 -33 -44 -54 -14 -24
34 -20 45 22 55 50 13 57 3 32 -41z"/>
<path d="M1883 3634 c-7 -3 -21 -20 -32 -37 -17 -28 -20 -59 -26 -257 -11
-407 -28 -581 -79 -850 -111 -583 -358 -980 -736 -1181 l-45 -24 39 -3 c49 -4
115 17 234 75 271 131 489 406 638 804 70 188 138 501 160 737 4 39 11 72 15
72 4 0 23 -21 40 -47 44 -63 125 -152 169 -185 120 -89 226 -106 334 -53 102
51 201 166 305 358 24 42 46 77 50 77 5 0 11 -145 15 -322 11 -529 25 -993 36
-1153 5 -82 12 -223 16 -313 3 -90 7 -162 9 -160 14 17 57 1433 68 2268 2 129
-10 176 -51 191 -32 12 -69 -11 -78 -49 -24 -97 -166 -390 -256 -523 -98 -147
-185 -209 -262 -188 -131 36 -290 288 -392 622 -33 109 -65 147 -121 146 -21
0 -43 -3 -50 -5z"/>
<path d="M409 3409 c-6 -17 -10 -31 -8 -33 2 -2 47 -24 99 -48 52 -25 101 -52
108 -61 21 -25 11 -77 -20 -100 l-26 -19 -106 47 c-58 26 -112 45 -120 42 -7
-3 -16 -15 -19 -27 -5 -20 6 -27 99 -71 112 -52 158 -60 203 -33 42 25 76 81
75 125 -2 64 -37 97 -162 155 l-111 52 -12 -29z"/>
<path d="M4200 3370 c-93 -44 -144 -72 -142 -81 6 -33 48 -116 71 -142 51 -56
125 -73 194 -43 65 28 116 114 103 176 -8 40 -63 160 -73 159 -4 -1 -73 -32
-153 -69z m145 -50 c32 -61 10 -126 -53 -154 -35 -16 -42 -16 -75 -2 -35 14
-77 66 -77 94 0 12 151 91 177 92 7 0 19 -13 28 -30z"/>
<path d="M3840 3283 c0 -5 27 -61 60 -124 73 -142 133 -317 161 -475 28 -154
31 -423 6 -564 -31 -182 -99 -382 -178 -529 -37 -69 -43 -101 -20 -101 15 0
128 239 165 351 67 204 81 296 81 549 -1 253 -13 335 -83 545 -44 135 -150
348 -174 353 -10 2 -18 0 -18 -5z"/>
<path d="M836 3138 c-136 -279 -184 -506 -173 -827 7 -196 26 -308 83 -481 39
-119 139 -329 161 -337 29 -11 24 8 -25 104 -118 232 -176 449 -188 708 -14
283 48 571 181 835 51 103 58 130 35 130 -6 0 -39 -60 -74 -132z"/>
<path d="M270 2678 c11 -29 20 -56 20 -60 0 -4 -20 -21 -45 -38 -25 -17 -45
-34 -45 -39 0 -4 26 -7 57 -7 l58 1 21 -60 c14 -37 24 -54 28 -45 3 8 12 33
19 55 14 39 15 40 71 45 31 3 57 9 57 13 0 5 -18 22 -40 38 -23 16 -41 33 -41
37 0 5 7 30 16 56 9 26 14 49 12 52 -3 2 -26 -12 -51 -31 -25 -19 -49 -35 -52
-35 -4 0 -26 16 -49 35 -24 19 -46 35 -49 35 -4 0 2 -24 13 -52z"/>
<path d="M4340 2713 c0 -5 8 -30 17 -57 l18 -49 -25 -16 c-13 -9 -36 -26 -50
-38 l-25 -22 62 -1 62 0 17 -55 c10 -30 21 -55 24 -55 4 0 13 24 21 53 l14 52
63 3 c34 2 62 6 62 10 0 4 -18 18 -40 32 -22 13 -42 30 -44 37 -3 7 1 34 9 60
8 26 12 49 10 51 -2 3 -23 -10 -47 -27 -23 -17 -46 -31 -51 -31 -5 0 -26 14
-47 30 -39 31 -50 36 -50 23z"/>
<path d="M350 1986 c0 -2 7 -23 15 -46 22 -61 19 -72 -25 -102 -22 -15 -40
-32 -40 -38 0 -6 26 -10 58 -10 l58 0 18 -56 c10 -31 21 -53 24 -49 4 3 14 27
23 53 l16 47 61 3 c34 2 62 7 62 12 0 4 -20 21 -45 37 -49 31 -53 42 -29 98 8
20 14 41 12 46 -2 6 -25 -6 -52 -25 l-50 -35 -47 34 c-43 32 -59 41 -59 31z"/>
<path d="M4243 1966 c3 -8 11 -33 18 -56 12 -41 12 -43 -13 -61 -15 -11 -37
-28 -50 -39 l-23 -19 62 -1 62 0 16 -55 c8 -30 19 -55 23 -55 4 0 16 24 27 53
l20 52 60 5 60 5 -47 34 c-27 19 -48 38 -48 43 0 4 7 28 16 54 8 25 13 48 11
51 -3 2 -24 -9 -48 -26 -23 -17 -46 -31 -52 -31 -5 0 -26 14 -47 30 -41 33
-55 37 -47 16z"/>
<path d="M867 1213 l-48 -34 -44 32 c-25 18 -47 30 -50 28 -2 -3 2 -27 10 -53
17 -55 13 -63 -41 -97 -19 -11 -34 -25 -34 -29 0 -5 28 -10 62 -12 l62 -3 13
-44 c19 -66 27 -67 47 -6 l17 55 60 0 c32 0 59 4 59 9 0 5 -20 22 -45 38 -50
31 -51 35 -29 88 24 59 15 66 -39 28z"/>
<path d="M3880 1231 c0 -5 7 -28 15 -51 8 -23 15 -46 15 -49 0 -4 -20 -21 -45
-39 -25 -17 -45 -36 -45 -42 0 -6 26 -10 60 -10 l59 0 17 -56 c9 -30 19 -53
22 -49 4 4 14 27 23 53 l16 47 61 3 c34 2 62 7 62 12 0 5 -20 23 -45 40 -50
34 -51 37 -31 103 8 26 11 47 6 47 -4 0 -24 -13 -45 -30 -21 -16 -42 -30 -47
-30 -6 0 -27 14 -48 30 -40 31 -50 36 -50 21z"/>
<path d="M1494 928 c-10 -15 13 -30 141 -93 456 -224 986 -239 1447 -41 149
64 218 104 211 121 -7 20 -10 19 -73 -16 -143 -80 -342 -150 -525 -186 -142
-27 -465 -25 -610 5 -159 33 -312 87 -455 159 -68 35 -125 63 -127 63 -1 0 -5
-5 -9 -12z"/>
<path d="M1297 796 c-50 -18 -72 -39 -97 -90 -23 -48 -24 -66 -9 -119 20 -74
92 -127 172 -127 31 0 38 9 31 37 -4 14 -17 23 -40 27 -18 4 -47 18 -63 32
-78 65 -27 184 78 184 33 0 46 -7 74 -35 36 -37 58 -43 75 -22 15 18 -28 81
-68 102 -44 23 -109 27 -153 11z"/>
<path d="M3300 743 c0 -49 29 -346 35 -351 2 -3 16 3 30 12 17 11 25 26 25 44
0 22 10 33 54 60 60 36 68 37 95 20 15 -9 25 -9 45 0 43 19 51 12 -169 165
-123 86 -115 83 -115 50z m119 -131 l33 -28 -27 -18 c-38 -25 -55 -15 -55 34
0 22 3 40 8 40 4 0 22 -13 41 -28z"/>
<path d="M1660 650 c0 -7 -6 -26 -14 -43 -20 -44 -86 -238 -86 -253 0 -7 12
-17 28 -22 15 -6 57 -22 94 -36 l68 -26 15 30 c14 27 14 30 -6 40 -11 7 -43
18 -70 26 -52 16 -54 19 -39 58 11 31 24 32 81 7 49 -22 55 -21 61 14 6 30 -4
39 -60 56 -41 12 -43 14 -38 43 4 16 9 32 12 35 3 3 35 -5 71 -18 69 -25 82
-21 83 22 0 18 -21 29 -105 54 -84 25 -95 26 -95 13z"/>
<path d="M3024 613 c-9 -45 -34 -145 -45 -187 l-11 -39 -94 94 c-52 51 -94 87
-94 79 0 -48 34 -327 41 -334 5 -6 18 -5 32 1 23 11 23 13 14 83 -5 39 -6 75
-2 78 4 4 34 -22 66 -57 34 -37 64 -61 72 -58 8 3 19 36 26 79 20 110 24 112
64 25 l35 -76 31 10 c17 6 31 12 31 14 0 7 -152 315 -156 315 -2 0 -6 -12 -10
-27z"/>
<path d="M2002 527 c-12 -13 -25 -38 -28 -56 -6 -30 -2 -37 55 -91 63 -61 75
-92 43 -109 -13 -7 -30 -4 -60 12 -40 20 -43 20 -59 4 -16 -16 -15 -18 6 -41
13 -14 43 -29 68 -34 86 -19 143 18 143 93 0 38 -9 50 -93 121 -42 36 -45 49
-17 64 16 9 29 6 60 -11 38 -22 40 -22 60 -4 16 14 17 21 8 32 -22 26 -67 43
-116 43 -38 0 -53 -5 -70 -23z"/>
<path d="M2550 413 c0 -65 -4 -123 -8 -129 -10 -15 -47 -34 -67 -34 -9 0 -27
11 -40 25 -24 23 -25 31 -25 135 l0 110 -36 0 -36 0 3 -123 c4 -136 14 -162
72 -197 43 -27 96 -25 138 3 64 43 78 99 62 260 -6 66 -6 67 -34 67 l-29 0 0
-117z"/>
</g>
</svg>
